<svg xmlns="http://www.w3.org/2000/svg" viewBox="29.764 153.069 535.752 391.695" enable-background="new 29.764 153.069 535.752 391.695"><path d="M173.822 317.366c5.06 5.655 11.31 9.822 18.454 13.096 7.44 3.274 15.478 4.762 24.704 4.762 7.44 0 13.99-1.19 20.24-3.274 6.25-2.38 11.607-5.357 16.072-9.822 4.464-4.167 8.333-9.524 11.012-15.477 2.68-5.95 4.465-12.793 5.06-20.24h-25.597c-.893 8.04-3.87 14.59-8.334 19.35-4.464 5.06-10.715 7.44-18.75 7.44-5.954 0-11.014-1.19-15.18-3.57-4.168-2.38-7.44-5.36-10.12-9.23-2.68-3.87-4.465-8.032-5.655-12.793-1.19-4.763-1.786-9.525-1.786-14.584 0-5.36.595-10.417 1.786-15.18 1.19-5.06 2.976-9.227 5.655-13.096 2.68-3.87 5.952-6.846 10.12-9.227 4.166-2.38 9.226-3.573 15.18-3.573 3.273 0 6.25.596 9.226 1.488 2.97 1.19 5.65 2.68 8.03 4.466 2.38 1.787 4.168 4.168 5.953 6.55 1.488 2.38 2.68 5.356 2.977 8.333h25.598c-.893-6.845-2.68-13.095-5.654-18.453-2.977-5.358-6.846-9.823-11.608-13.395-4.765-3.57-9.824-6.25-15.777-8.333-5.95-1.788-12.204-2.98-18.75-2.98-9.23 0-17.265 1.49-24.706 4.763s-13.395 7.74-18.455 13.394c-5.06 5.653-8.93 12.5-11.607 19.94-2.68 7.736-4.168 16.07-4.168 25 0 8.63 1.488 16.964 4.167 24.406 3.27 8.037 7.14 14.585 11.902 20.24zm137.21-11.608h44.647l8.923 26.788h27.383l-44.646-119.65h-27.08l-44.944 119.65h26.49l9.227-26.788zm22.325-63.397h.298l15.18 44.057H317.88l15.477-44.05zm98.816 43.46h26.192c6.548 0 11.31 1.488 14.287 4.465 2.977 2.978 4.762 7.443 5.655 13.693.595 4.762 1.19 9.822 1.487 15.18.298 5.357 1.19 9.822 2.68 13.69h26.19c-1.19-1.785-2.082-3.57-2.678-6.25-.595-2.38-1.19-5.06-1.487-7.738-.3-2.68-.6-5.358-.6-7.74 0-2.68-.3-4.76-.3-6.846-.298-2.977-.595-5.954-1.19-8.93s-1.488-5.655-2.977-8.334c-1.488-2.38-2.977-4.763-5.06-6.55-2.084-1.785-4.763-3.273-8.036-4.166v-.296c6.846-2.68 11.607-6.548 14.584-11.608 2.978-5.06 4.466-11.31 4.466-18.157 0-4.466-.893-8.93-2.38-12.8-1.49-3.87-3.87-7.44-7.145-10.417-2.976-2.977-6.845-5.358-11.012-7.144-4.168-1.788-9.228-2.68-14.586-2.68H405.68v119.65h26.192v-47.027h.3zm0-52.384h28.87c5.954 0 10.42 1.19 13.692 3.87 2.977 2.68 4.465 6.846 4.465 12.798s-1.488 10.418-4.465 13.097-7.44 4.167-13.69 4.167h-28.872v-33.93zM388.718 458.15c-1.786-2.382-2.977-5.06-3.572-8.334-.595-3.274-.893-6.25-.893-9.524v-74.41H358.06v74.41c0 16.37 4.466 28.275 13.395 36.312 8.93 7.74 21.43 11.608 37.503 11.608s28.573-3.87 37.503-11.906c8.93-7.738 13.697-19.94 13.697-36.014v-74.41H433.96v74.41c0 8.93-1.786 15.477-5.357 19.644-3.572 4.167-10.12 6.25-19.347 6.25-5.357 0-9.524-.893-12.8-2.38-3.57-1.192-5.953-3.275-7.738-5.656zm94.054-92.268h26.192v119.65h-26.192zM29.764 153.07v391.694h535.752V153.07H29.764zm509.56 365.203H88.398c.297-1.488.297-2.977.297-4.763 0-3.57-.595-6.846-1.785-10.12l42.86-42.86-12.502-12.5L75.6 489.7c-4.464-2.68-9.523-4.465-14.88-4.465-1.49 0-3.275.298-4.764.298v-306.57h483.07v339.31h.297zm-388.42-142.57l-16.37-5.952-11.906 32.448 16.667 5.953zm36.03 28.642L162.52 428.76l-12.416-12.418 24.413-24.413zm-79.486-3.937v-34.526h-17.56v34.526zm94.65 26.49l-32.443 11.61 5.953 16.666 32.442-11.906zm-25.002 41.372v17.56h34.526v-17.56z"/></svg>