<svg viewBox="0 0 30 30" style="background-color:#ffffff00" xmlns="http://www.w3.org/2000/svg" width="30" height="30"><path fill="#ffc300" d="M-.077 0h30.154v30H-.077z"/><path d="M23.87 10.104c-.663.29-1.377.485-2.126.573.765-.45 1.35-1.163 1.628-2.01-.716.415-1.51.72-2.35.88-.676-.706-1.64-1.147-2.703-1.147-2.05 0-3.707 1.627-3.707 3.635 0 .285.033.562.096.83-3.076-.153-5.805-1.6-7.63-3.8-.318.537-.5 1.162-.5 1.828 0 1.26.652 2.374 1.645 3.025-.606-.018-1.177-.182-1.677-.454v.046c0 1.76 1.276 3.23 2.97 3.564-.31.084-.64.128-.977.128-.24 0-.47-.023-.695-.065.47 1.444 1.837 2.495 3.456 2.524-1.266.98-2.86 1.56-4.596 1.56-.3 0-.594-.02-.884-.05 1.642 1.03 3.59 1.63 5.68 1.63 6.81 0 10.533-5.54 10.533-10.342 0-.158-.003-.315-.01-.47.722-.513 1.35-1.154 1.846-1.883z"/></svg>