<svg xmlns="http://www.w3.org/2000/svg" viewBox="29.764 153.069 535.752 392.885" enable-background="new 29.764 153.069 535.752 392.885"><path d="M254.185 257.838c-1.488-2.083-3.274-4.167-5.357-5.953-2.084-1.786-4.465-2.977-7.144-3.87s-5.357-1.488-8.334-1.488c-5.357 0-9.822 1.19-13.69 3.274-3.87 2.09-6.847 5.06-8.93 8.64-2.382 3.57-4.168 7.74-5.358 12.21-1.19 4.47-1.488 9.23-1.488 14.29 0 4.76.596 9.228 1.488 13.69 1.19 4.466 2.68 8.335 5.06 11.907 2.382 3.573 5.358 6.25 8.93 8.633 3.572 2.082 8.334 3.273 13.69 3.273 7.145 0 12.8-3.572 16.967-8.037 4.16-4.467 6.54-10.42 7.44-17.564h22.91c-.6 6.847-2.09 12.8-4.77 18.455-2.38 5.358-5.95 11.61-10.12 15.48-4.17 3.87-8.93 6.844-14.587 8.93s-11.607 2.973-18.156 2.973c-8.33 0-15.77-1.486-22.32-4.462-6.846-2.974-12.5-6.843-17.264-12.2-4.762-5.06-8.632-11.31-11.013-18.156-2.08-7.144-3.57-14.88-3.57-22.918 0-8.332 1.19-16.07 3.87-23.215 2.38-7.148 6.25-13.1 11.015-18.46 4.764-5.355 10.42-9.522 17.265-12.5 6.55-2.976 13.99-4.463 22.322-4.463 5.95 0 11.605.89 16.963 2.675 5.355 1.788 10.117 4.17 14.284 7.44s7.74 5.658 10.415 10.718c2.68 4.764 4.465 10.42 5.06 16.67h-22.91c-.3-2.68-1.19-5.06-2.68-7.44v1.486zm96.138 34.526l-13.69-34.824-.3.595-13.988 34.526h27.98v-.29h-.002zm-1.49-61.313l40.48 106.26H364.61l-8.335-24.4h-40.48l-8.333 24.41H283.65l40.777-106.25h24.407zM450.627 276c5.06 0 8.93-.595 11.607-2.976 2.68-2.38 3.87-6.25 3.87-11.61 0-5.06-1.49-8.035-3.87-10.415-2.68-2.38-6.548-3.58-11.607-3.58H426.22V276h24.704-.297zm8.93-48.813c4.762 0 9.227 0 13.096 1.787 3.87 1.488 7.143 3.87 10.12 6.548s5.06 5.953 6.548 9.524c1.49 3.57 2.09 7.44 2.09 11.61 0 6.547-1.49 11.905-4.16 16.667-2.972 4.76-7.44 8.334-13.99 10.715v.298c2.98.893 5.36 2.083 7.15 3.87 1.786 1.786 3.57 3.87 4.763 6.25 1.19 2.38 2.084 5.06 2.68 7.738.595 2.978.893 5.656 1.19 8.633 0 1.786.298 3.87.298 6.25s.3 4.762.597 7.44c.296 2.382.594 5.06 1.19 7.144.594 2.39 1.486 4.17 2.38 5.66h-23.52c-1.19-3.57-2.084-8.03-2.382-13.09-.295-5.06-.89-9.82-1.486-14.58-.9-5.952-2.38-10.12-5.06-12.8-2.38-2.975-6.85-4.165-12.5-4.165h-22.62v44.945h-24.11V227.48h58.93-1.19v-.3zm-80.96 240.495c-8.035 7.143-19.346 10.714-33.335 10.714-14.286 0-25.597-3.57-33.633-10.715-7.74-7.14-11.91-18.15-11.91-32.74v-69.05h24.4v67.27c0 2.98.29 7.44.59 10.42.592 2.98 2.08 5.36 3.57 7.44 1.485 2.087 3.57 3.87 5.95 5.36 2.68 1.49 5.95 2.084 10.42 2.084 7.74 0 12.5-1.787 15.474-5.656 2.975-3.87 4.463-9.822 4.463-17.86V365.89H389v67.564c0 14.58-4.166 27.38-12.203 34.525h1.785v-.3zm24.11-101.794h27.383l21.132 33.93 22.025-33.93h25.895l-34.23 49.11 37.802 56.85h-28.276l-23.514-38.1-24.108 38.1h-26.49l37.205-55.36-34.82-50.6zm162.81 180.072H29.763V153.07h535.752v392.884zM55.36 520.36h484.857V178.67H55.36v341.69z" fill="#fff"/></svg>