<svg xmlns="http://www.w3.org/2000/svg" width="40" height="30" viewBox="29.764 153.069 535.752 392.885" enable-background="new 29.764 153.069 535.752 392.885"><path d="M254.185 257.838c-1.488-2.083-3.274-4.167-5.357-5.953-2.084-1.786-4.465-2.977-7.144-3.87s-5.357-1.488-8.334-1.488c-5.357 0-9.822 1.19-13.69 3.274-3.87 2.09-6.847 5.06-8.93 8.64-2.382 3.57-4.168 7.74-5.358 12.202-1.19 4.465-1.488 9.227-1.488 14.287 0 4.76.596 9.226 1.488 13.69 1.19 4.464 2.68 8.333 5.06 11.905 2.382 3.573 5.358 6.25 8.93 8.633 3.572 2.083 8.334 3.274 13.69 3.274 7.145 0 12.8-3.572 16.967-8.037 4.16-4.465 6.54-10.418 7.44-17.562h22.912c-.596 6.847-2.084 12.8-4.763 18.455-2.38 5.357-5.95 11.608-10.12 15.478-4.166 3.87-8.93 6.846-14.584 8.93s-11.607 2.975-18.156 2.975c-8.332 0-15.772-1.487-22.32-4.463-6.846-2.975-12.5-6.844-17.264-12.2-4.764-5.06-8.634-11.31-11.015-18.157-2.08-7.144-3.57-14.882-3.57-22.918 0-8.334 1.19-16.073 3.87-23.217 2.38-7.144 6.25-13.097 11.015-18.455 4.762-5.357 10.417-9.524 17.263-12.5 6.55-2.978 13.99-4.465 22.322-4.465 5.95 0 11.606.892 16.964 2.678 5.356 1.787 10.118 4.168 14.285 7.44s7.74 5.657 10.416 10.717c2.68 4.762 4.466 10.417 5.06 16.668H256.86c-.297-2.68-1.19-5.06-2.68-7.44v1.486zm96.138 34.526l-13.69-34.824-.3.595-13.988 34.526h27.98v-.29h-.002zm-1.49-61.313l40.48 106.26H364.61l-8.335-24.402h-40.48l-8.333 24.406H283.65l40.777-106.257h24.407zM450.627 276c5.06 0 8.93-.595 11.607-2.976 2.68-2.38 3.87-6.25 3.87-11.61 0-5.06-1.49-8.035-3.87-10.415-2.68-2.38-6.548-3.574-11.607-3.574H426.22V276h24.704-.297zm8.93-48.813c4.762 0 9.227 0 13.096 1.787 3.87 1.488 7.143 3.87 10.12 6.548s5.06 5.953 6.548 9.524c1.49 3.57 2.09 7.44 2.09 11.61 0 6.547-1.49 11.905-4.167 16.667-2.977 4.76-7.44 8.334-13.99 10.715v.298c2.978.893 5.358 2.083 7.145 3.87 1.786 1.786 3.57 3.87 4.763 6.25 1.19 2.38 2.084 5.06 2.68 7.738.595 2.978.893 5.656 1.19 8.633 0 1.786.298 3.87.298 6.25s.297 4.762.595 7.44c.296 2.382.594 5.06 1.19 7.144.594 2.384 1.486 4.17 2.38 5.658H469.98c-1.19-3.572-2.085-8.036-2.383-13.096-.297-5.06-.893-9.82-1.488-14.583-.894-5.954-2.38-10.12-5.06-12.8-2.38-2.977-6.847-4.167-12.5-4.167h-22.62v44.945h-24.11V227.48h58.932-1.19v-.3zm-80.96 240.495c-8.035 7.143-19.346 10.714-33.335 10.714-14.286 0-25.597-3.57-33.633-10.715-7.74-7.144-11.91-18.156-11.91-32.74v-69.053h24.404v67.267c0 2.977.297 7.44.594 10.417.596 2.976 2.084 5.356 3.572 7.44 1.488 2.083 3.57 3.87 5.952 5.357 2.678 1.488 5.952 2.083 10.417 2.083 7.74 0 12.5-1.787 15.477-5.656 2.975-3.87 4.463-9.822 4.463-17.858v-69.053h24.406v67.564c0 14.582-4.167 27.38-12.204 34.524h1.785v-.295zm24.11-101.794h27.383l21.132 33.93 22.025-33.93h25.895l-34.23 49.11 37.802 56.85h-28.276l-23.514-38.1-24.108 38.1h-26.49l37.205-55.36-34.82-50.6zm162.81 180.072H29.763V153.07h535.752v392.884zM55.36 520.36h484.857V178.67H55.36v341.69z"/></svg>